#!OML:ASF H:\MichaelJackson\Top Level 1\Subject 1\Session 1\male.ASF
:FULLY-SPECIFIED
:DEGREES
849
root 3.87225 16.3019 28.1657 -9.40199 6.97598 359.57
lowerback 4.27397 2.98959 -3.03709
upperback 1.08861 3.85776 0.278053
thorax -1.49183 1.93759 1.76551
lowerneck -6.31932 -3.76758 2.46624
upperneck 9.0031 -5.44596 1.33737
head 4.04121 -2.53936 -0.284723
rclavicle -3.26255e-014 7.55382e-015
rhumerus -38.7405 14.4239 -66.364
rradius 50.804
rwrist 9.62928
rhand -36.7033 -33.3678
rfingers 7.12502
rthumb -9.78842 -783.12
lclavicle -3.26255e-014 7.55382e-015
lhumerus -50.4128 -10.5342 84.1033
lradius 55.7645
lwrist 21.0421
lhand -2.86005 3.53525
lfingers 7.12502
lthumb 22.8483 32.2018
rfemur -35.7359 -3.19006 0.632151
rtibia 106.701
rfoot 36.2897 21.5875
rtoes -4.26317
lfemur -22.7616 0.671015 -17.7494
ltibia 37.3268
lfoot -7.70733 -12.916
ltoes 2.10976
850
root 3.88193 16.3032 28.2609 -10.0921 8.00817 359.835
lowerback 5.16441 2.62107 -3.48972
upperback 1.40529 3.31486 0.132862
thorax -1.64987 1.66603 1.86958
lowerneck -6.26086 -3.74151 2.45292
upperneck 8.90688 -5.4155 1.44658
head 3.99943 -2.52181 -0.241807
rclavicle 3.57812e-015 -1.98785e-015
rhumerus -39.6281 13.4125 -65.3535
rradius 50.737
rwrist 9.50188
rhand -36.5818 -33.7782
rfingers 7.12502
rthumb -9.67121 -783.536
lclavicle 3.57812e-015 -1.98785e-015
lhumerus -49.3716 -11.397 83.7043
lradius 55.6602
lwrist 21.2966
lhand -2.36772 3.59074
lfingers 7.12502
lthumb 23.3207 32.1982
rfemur -39.428 -2.80249 0.555703
rtibia 108.659
rfoot 35.2741 20.6173
rtoes -4.06218
lfemur -21.872 0.927206 -18.3507
ltibia 37.5188
lfoot -8.01062 -13.937
ltoes 3.27484
851
root 3.88886 16.3077 28.3541 -10.7923 9.05109 360.037
lowerback 6.06568 2.24366 -3.88018
upperback 1.73009 2.75556 -0.0192546
thorax -1.79441 1.38587 1.94406
lowerneck -6.18437 -3.71077 2.44806
upperneck 8.80953 -5.38109 1.57972
head 3.95431 -2.50113 -0.191922
rclavicle -8.03835e-014 4.77083e-015
rhumerus -40.5793 12.439 -64.4357
rradius 50.7578
rwrist 9.20683
rhand -36.2498 -33.9146
rfingers 7.12502
rthumb -9.35086 -783.687
lclavicle -8.03835e-014 4.77083e-015
lhumerus -48.292 -12.2655 83.2807
lradius 55.5071
lwrist 21.5246
lhand -1.88763 3.64474
lfingers 7.12502
lthumb 23.7812 32.193
rfemur -43.0302 -2.39639 0.62706
rtibia 109.736
rfoot 34.1506 19.1923
rtoes -3.75065
lfemur -20.9345 1.28773 -18.8527
ltibia 37.6198
lfoot -8.20548 -15.0984
ltoes 4.72273
852
root 3.8942 16.3166 28.4453 -11.4969 10.1103 360.166
lowerback 6.96724 1.85701 -4.20033
upperback 2.05752 2.18218 -0.173069
thorax -1.92675 1.09842 1.98982
lowerneck -6.09744 -3.67939 2.44708
upperneck 8.72355 -5.34783 1.73287
head 3.91178 -2.47991 -0.136234
rclavicle -3.08116e-015 1.11319e-014
rhumerus -41.5821 11.4862 -63.5865
rradius 50.8471
rwrist 8.74084
rhand -35.6804 -33.7801
rfingers 7.12502
rthumb -8.80136 -783.577
lclavicle -3.08116e-015 1.11319e-014
lhumerus -47.1864 -13.1442 82.8523
lradius 55.3215
lwrist 21.7415
lhand -1.40407 3.69954
lfingers 7.12502
lthumb 24.2449 32.1867
rfemur -46.4375 -1.98045 0.82588
rtibia 109.836
rfoot 32.9343 17.3343
rtoes -3.19013
lfemur -19.9501 1.7216 -19.2506
ltibia 37.6107
lfoot -8.26569 -16.3755
ltoes 6.44081
853
root 3.89908 16.3311 28.5343 -12.1954 11.1864 360.221
lowerback 7.85719 1.46213 -4.44752
upperback 2.38144 1.59891 -0.323009
thorax -2.04873 0.806019 2.01072
lowerneck -6.01071 -3.65008 2.44573
upperneck 8.65861 -5.31905 1.89983
head 3.87728 -2.45999 -0.0766071
rclavicle -9.51682e-015 1.23246e-014
rhumerus -42.619 10.5366 -62.7754
rradius 50.9832
rwrist 8.11281
rhand -34.842 -33.4023
rfingers 7.12502
rthumb -7.99228 -783.231
lclavicle -9.51682e-015 1.23246e-014
lhumerus -46.0617 -14.0344 82.439
lradius 55.1189
lwrist 21.9565
lhand -0.886775 3.76358
lfingers 7.12502
lthumb 24.7407 32.1836
rfemur -49.5397 -1.57635 1.11562
rtibia 108.89
rfoot 31.5792 15.0853
rtoes -2.29955
lfemur -18.926 2.19177 -19.5469
ltibia 37.4742
lfoot -8.16943 -17.7287
ltoes 8.38596
854
root 3.90448 16.3517 28.6205 -12.8718 12.2711 360.203
lowerback 8.72165 1.06203 -4.62241
upperback 2.69501 1.0125 -0.463478
thorax -2.16219 0.512272 2.01198
lowerneck -5.93544 -3.62395 2.44181
upperneck 8.61868 -5.29583 2.07211
head 3.85421 -2.44216 -0.0157845
rclavicle 1.68718e-014 -2.78299e-015
rhumerus -43.6674 9.57308 -61.9692
rradius 51.1437
rwrist 7.34539
rhand -33.7004 -32.8307
rfingers 7.12502
rthumb -6.89037 -782.699
lclavicle 1.68718e-014 -2.78299e-015
lhumerus -44.9229 -14.9324 82.0584
lradius 54.9152
lwrist 22.1694
lhand -0.299076 3.84808
lfingers 7.12502
lthumb 25.3039 32.1897
rfemur -52.2401 -1.2084 1.45531
rtibia 106.861
rfoot 30.0135 12.5111
rtoes -1.02744
lfemur -17.8771 2.66492 -19.7488
ltibia 37.2
lfoot -7.90657 -19.1095
ltoes 10.4872
855
root 3.91112 16.3785 28.7032 -13.5055 13.3453 360.119
lowerback 9.5442 0.662239 -4.72927
upperback 2.99097 0.432771 -0.590153
thorax -2.26813 0.222285 1.99879
lowerneck -5.88246 -3.60063 2.43466
upperneck 8.60225 -5.27727 2.24114
head 3.84389 -2.42627 0.0434165
rclavicle -8.19987e-015 4.77083e-015
rhumerus -44.7012 8.58011 -61.1365
rradius 51.3081
rwrist 6.47186
rhand -32.2241 -32.1349
rfingers 7.12502
rthumb -5.46513 -782.044
lclavicle -8.19987e-015 4.77083e-015
lhumerus -43.7742 -15.8302 81.7234
lradius 54.7266
lwrist 22.3715
lhand 0.391591 3.95817
lfingers 7.12502
lthumb 25.9654 32.2045
rfemur -54.4701 -0.895408 1.80721
rtibia 103.749
rfoot 28.1646 9.73185
rtoes 0.601799
lfemur -16.8275 3.11758 -19.868
ltibia 36.7894
lfoot -7.48443 -20.4669
ltoes 12.6542
856
root 3.91944 16.411 28.782 -14.0722 14.3804 359.981
lowerback 10.3055 0.2701 -4.77403
upperback 3.26244 -0.12835 -0.699807
thorax -2.3656 -0.0579004 1.97531
lowerneck -5.85988 -3.57834 2.42515
upperneck 8.60056 -5.2605 2.39978
head 3.84451 -2.41127 0.0986353
rclavicle -7.37988e-015 1.78906e-014
rhumerus -45.6937 7.54634 -60.2511
rradius 51.4609
rwrist 5.53165
rhand -30.3932 -31.3931
rfingers 7.12502
rthumb -3.69719 -781.341
lclavicle -7.37988e-015 1.78906e-014
lhumerus -42.6222 -16.7166 81.4415
lradius 54.5695
lwrist 22.549
lhand 1.20196 4.08929
lfingers 7.12502
lthumb 26.7411 32.2195
rfemur -56.2012 -0.646524 2.1461
rtibia 99.592
rfoot 25.9809 6.9387
rtoes 2.41523
lfemur -15.8107 3.53965 -19.9164
ltibia 36.2613
lfoot -6.93147 -21.7552
ltoes 14.7927
857
root 3.92955 16.4476 28.8568 -14.5473 15.3408 359.804
lowerback 10.986 -0.105207 -4.76461
upperback 3.50333 -0.657196 -0.791103
thorax -2.45255 -0.32148 1.94401
lowerneck -5.873 -3.55507 2.41423
upperneck 8.60127 -5.24242 2.54447
head 3.85261 -2.39593 0.148768
rclavicle 2.18912e-014 8.74653e-015
rhumerus -46.6215 6.46581 -59.2957
rradius 51.5924
rwrist 4.56862
rhand -28.2039 -30.6911
rfingers 7.12502
rthumb -1.58287 -780.665
lclavicle 2.18912e-014 8.74653e-015
lhumerus -41.4777 -17.5811 81.2149
lradius 54.4621
lwrist 22.6882
lhand 2.12705 4.22769
lfingers 7.12502
lthumb 27.6261 32.2195
rfemur -57.4482 -0.462215 2.4614
rtibia 94.4726
rfoot 23.4539 4.36444
rtoes 4.09273
lfemur -14.8682 3.93451 -19.9061
ltibia 35.6568
lfoot -6.29817 -22.9387
ltoes 16.8159
858
root 3.94121 16.4858 28.9281 -14.9094 16.1896 359.603
lowerback 11.5685 -0.453884 -4.71125
upperback 3.70931 -1.14022 -0.864137
thorax -2.5261 -0.56182 1.90661
lowerneck -5.92275 -3.5284 2.40325
upperneck 8.58863 -5.21935 2.67503
head 3.86271 -2.37868 0.19389
rclavicle -6.41081e-015 2.14687e-014
rhumerus -47.4655 5.33935 -58.2635
rradius 51.7
rwrist 3.62758
rhand -25.6751 -30.1071
rfingers 7.12502
rthumb 0.859562 -780.085
lclavicle -6.41081e-015 2.14687e-014
lhumerus -40.357 -18.4147 81.0414
lradius 54.4238
lwrist 22.7801
lhand 3.13784 4.35024
lfingers 7.12502
lthumb 28.5923 32.1834
rfemur -58.2668 -0.341444 2.76159
rtibia 88.5186
rfoot 20.626 2.22824
rtoes 5.22045
lfemur -14.0463 4.3152 -19.846
ltibia 35.0396
lfoot -5.65324 -23.9943
ltoes 18.6532
859
root 3.95397 16.522 28.9976 -15.1442 16.8929 359.397
lowerback 12.043 -0.766245 -4.62669
upperback 3.87863 -1.56527 -0.920581
thorax -2.58384 -0.773047 1.86454
lowerneck -6.00763 -3.49659 2.39308
upperneck 8.54781 -5.18871 2.79498
head 3.86933 -2.35843 0.235324
rclavicle 2.65129e-014 -1.59028e-014
rhumerus -48.2125 4.17214 -57.1579
rradius 51.7862
rwrist 2.755
rhand -22.8499 -29.6992
rfingers 7.12502
rthumb 3.58808 -779.649
lclavicle 2.65129e-014 -1.59028e-014
lhumerus -39.2804 -19.2134 80.9148
lradius 54.475
lwrist 22.8246
lhand 4.18851 4.43269
lfingers 7.12502
lthumb 29.5957 32.0924
rfemur -58.7427 -0.289517 3.07668
rtibia 81.902
rfoot 17.5885 0.676688
rtoes 5.38999
lfemur -13.3883 4.69791 -19.743
ltibia 34.4901
lfoot -5.0747 -24.9102
ltoes 20.2558
860
root 3.96723 16.5528 29.0671 -15.248 17.4255 359.203
lowerback 12.4094 -1.03306 -4.52854
upperback 4.0127 -1.92242 -0.96462
thorax -2.62504 -0.950405 1.81978
lowerneck -6.12239 -3.45849 2.38501
upperneck 8.46519 -5.14884 2.91031
head 3.86673 -2.33439 0.275147
rclavicle -3.85145e-014 4.77083e-015
rhumerus -48.8549 2.96952 -55.9909
rradius 51.8564
rwrist 1.99951
rhand -19.7931 -29.4945
rfingers 7.12502
rthumb 6.5396 -779.374
lclavicle -3.85145e-014 4.77083e-015
lhumerus -38.2705 -19.9795 80.8265
lradius 54.6367
lwrist 22.8316
lhand 5.22727 4.4599
lfingers 7.12502
lthumb 30.5867 31.9393
rfemur -58.9782 -0.326648 3.4602
rtibia 74.8331
rfoot 14.471 -0.239698
rtoes 4.27168
lfemur -12.9249 5.09543 -19.6055
ltibia 34.089
lfoot -4.63932 -25.6803
ltoes 21.5911
861
root 3.9804 16.5753 29.1389 -15.2285 17.7727 359.04
lowerback 12.6808 -1.24688 -4.43819
upperback 4.11589 -2.20558 -1.00234
thorax -2.6519 -1.09098 1.77558
lowerneck -6.25976 -3.41343 2.38036
upperneck 8.33041 -5.09881 3.02763
head 3.84999 -2.3061 0.315579
rclavicle -4.7348e-014 -4.77083e-015
rhumerus -49.3888 1.73459 -54.7793
rradius 51.9166
rwrist 1.41194
rhand -16.5831 -29.48
rfingers 7.12502
rthumb 9.63762 -779.24
lclavicle -4.7348e-014 -4.77083e-015
lhumerus -37.3497 -20.7197 80.7656
lradius 54.9279
lwrist 22.8196
lhand 6.20669 4.42609
lfingers 7.12502
lthumb 31.5203 31.7271
rfemur -59.0949 -0.497944 3.99843
rtibia 67.6135
rfoot 11.3841 -0.559381
rtoes 1.66929
lfemur -12.7319 5.51212 -19.4455
ltibia 34.0529
lfoot -4.50665 -26.2892
ltoes 22.633
